<svg width="180" height="180" viewBox="0 0 180 180" role="img" xmlns="http://www.w3.org/2000/svg">
  <title>Gauntlet</title>
  <desc>Dark trophy emblem built from tournament bracket lines on an amber tile.</desc>
  <defs>
    <linearGradient id="g" x1="0" y1="0" x2="1" y2="1">
      <stop offset="0" stop-color="#f2a93b"/>
      <stop offset="1" stop-color="#c9791f"/>
    </linearGradient>
  </defs>

  <rect x="0" y="0" width="180" height="180" rx="42" fill="url(#g)"/>

  <g stroke="#1a1205" stroke-width="4" fill="none" stroke-linecap="round" opacity="0.32">
    <path d="M30 56 h20 v18 h16"/>
    <path d="M30 124 h20 v-18 h16"/>
    <path d="M150 56 h-20 v18 h-16"/>
    <path d="M150 124 h-20 v-18 h-16"/>
  </g>

  <g fill="#1a1205">
    <path d="M72 52 h36 v14 c0 20 -8 34 -18 34 c-10 0 -18 -14 -18 -34 z"/>
    <rect x="86" y="100" width="8" height="18"/>
    <path d="M70 118 h40 c2 0 3 2 3 4 v6 h-46 v-6 c0 -2 1 -4 3 -4 z"/>
  </g>
  <g fill="none" stroke="#1a1205" stroke-width="5" stroke-linecap="round">
    <path d="M72 56 c-16 0 -20 22 -6 30"/>
    <path d="M108 56 c16 0 20 22 6 30"/>
  </g>
  <rect x="78" y="128" width="24" height="6" rx="3" fill="#1a1205" opacity="0.55"/>
</svg>
